<?xml version="1.0" encoding="UTF-8"?>
<svg xmlns="http://www.w3.org/2000/svg" version="1.1" width="100" height="100" viewBox="0 0 100 100"><rect x="0" y="0" width="100" height="100" fill="#ffffff"/><g transform="scale(3.03)"><g transform="translate(0,0)"><path fill-rule="evenodd" d="M8 0L8 4L9 4L9 5L8 5L8 7L9 7L9 6L10 6L10 9L11 9L11 8L12 8L12 9L13 9L13 10L14 10L14 9L13 9L13 8L12 8L12 7L13 7L13 6L12 6L12 7L11 7L11 3L10 3L10 2L9 2L9 0ZM13 0L13 1L11 1L11 2L12 2L12 5L13 5L13 4L14 4L14 5L16 5L16 7L17 7L17 8L16 8L16 9L15 9L15 11L16 11L16 13L12 13L12 12L13 12L13 11L12 11L12 12L11 12L11 13L9 13L9 12L10 12L10 11L11 11L11 10L9 10L9 11L8 11L8 10L6 10L6 9L7 9L7 8L4 8L4 9L3 9L3 10L1 10L1 9L2 9L2 8L0 8L0 10L1 10L1 11L2 11L2 12L0 12L0 14L1 14L1 17L2 17L2 18L0 18L0 20L1 20L1 21L0 21L0 22L1 22L1 21L2 21L2 24L0 24L0 25L3 25L3 24L5 24L5 25L7 25L7 24L5 24L5 23L3 23L3 22L5 22L5 21L7 21L7 22L6 22L6 23L8 23L8 24L9 24L9 25L8 25L8 26L11 26L11 25L10 25L10 24L9 24L9 22L8 22L8 21L10 21L10 23L11 23L11 24L12 24L12 25L13 25L13 26L15 26L15 27L14 27L14 28L13 28L13 27L12 27L12 28L11 28L11 27L10 27L10 29L9 29L9 27L8 27L8 29L9 29L9 31L8 31L8 33L10 33L10 32L12 32L12 33L14 33L14 31L16 31L16 30L17 30L17 33L18 33L18 30L17 30L17 29L18 29L18 28L19 28L19 29L21 29L21 30L22 30L22 29L23 29L23 28L24 28L24 30L23 30L23 31L24 31L24 33L26 33L26 32L27 32L27 33L28 33L28 32L29 32L29 33L30 33L30 32L29 32L29 29L30 29L30 31L32 31L32 30L33 30L33 28L31 28L31 29L30 29L30 28L29 28L29 22L30 22L30 21L29 21L29 19L28 19L28 18L27 18L27 20L26 20L26 19L25 19L25 20L26 20L26 21L24 21L24 18L26 18L26 17L27 17L27 15L28 15L28 13L29 13L29 14L30 14L30 15L29 15L29 16L28 16L28 17L29 17L29 18L30 18L30 19L32 19L32 18L30 18L30 17L29 17L29 16L30 16L30 15L32 15L32 14L30 14L30 13L29 13L29 12L30 12L30 11L31 11L31 10L28 10L28 8L27 8L27 10L26 10L26 9L25 9L25 10L24 10L24 9L23 9L23 8L24 8L24 7L25 7L25 5L24 5L24 4L25 4L25 2L22 2L22 1L19 1L19 0L17 0L17 1L16 1L16 0L15 0L15 1L14 1L14 0ZM23 0L23 1L24 1L24 0ZM15 1L15 2L13 2L13 3L14 3L14 4L15 4L15 2L16 2L16 1ZM18 1L18 2L19 2L19 4L18 4L18 3L16 3L16 5L20 5L20 6L19 6L19 7L18 7L18 6L17 6L17 7L18 7L18 9L16 9L16 10L18 10L18 11L19 11L19 12L18 12L18 13L19 13L19 15L18 15L18 14L17 14L17 13L16 13L16 15L14 15L14 14L13 14L13 15L12 15L12 16L11 16L11 15L10 15L10 16L7 16L7 15L9 15L9 13L5 13L5 11L6 11L6 12L8 12L8 11L6 11L6 10L5 10L5 11L4 11L4 12L3 12L3 13L4 13L4 14L2 14L2 13L1 13L1 14L2 14L2 17L3 17L3 16L4 16L4 17L5 17L5 19L4 19L4 18L2 18L2 19L1 19L1 20L2 20L2 21L4 21L4 20L7 20L7 19L6 19L6 18L7 18L7 17L10 17L10 16L11 16L11 20L10 20L10 21L11 21L11 22L12 22L12 21L13 21L13 22L14 22L14 21L13 21L13 20L16 20L16 21L17 21L17 19L18 19L18 18L17 18L17 19L13 19L13 17L15 17L15 18L16 18L16 17L15 17L15 16L17 16L17 15L18 15L18 16L19 16L19 20L18 20L18 21L19 21L19 23L18 23L18 25L17 25L17 24L15 24L15 23L14 23L14 25L17 25L17 26L18 26L18 27L19 27L19 28L21 28L21 27L20 27L20 26L22 26L22 27L24 27L24 26L22 26L22 25L19 25L19 23L20 23L20 22L21 22L21 23L22 23L22 24L23 24L23 25L24 25L24 24L28 24L28 22L29 22L29 21L28 21L28 22L27 22L27 21L26 21L26 22L27 22L27 23L25 23L25 22L24 22L24 24L23 24L23 23L22 23L22 21L19 21L19 20L20 20L20 16L19 16L19 15L20 15L20 14L21 14L21 15L22 15L22 18L21 18L21 19L22 19L22 20L23 20L23 17L26 17L26 16L25 16L25 15L27 15L27 13L28 13L28 12L29 12L29 11L27 11L27 13L26 13L26 12L25 12L25 13L26 13L26 14L24 14L24 16L23 16L23 15L22 15L22 14L23 14L23 13L20 13L20 11L21 11L21 9L19 9L19 8L21 8L21 7L22 7L22 5L23 5L23 7L24 7L24 5L23 5L23 3L21 3L21 2L19 2L19 1ZM20 3L20 4L21 4L21 5L22 5L22 4L21 4L21 3ZM14 6L14 7L15 7L15 6ZM20 6L20 7L21 7L21 6ZM29 8L29 9L33 9L33 8ZM18 9L18 10L19 10L19 9ZM22 9L22 10L23 10L23 9ZM22 11L22 12L24 12L24 11ZM31 12L31 13L33 13L33 12ZM11 13L11 14L12 14L12 13ZM6 14L6 15L4 15L4 16L6 16L6 17L7 17L7 16L6 16L6 15L7 15L7 14ZM12 16L12 17L13 17L13 16ZM32 16L32 17L33 17L33 16ZM8 18L8 20L9 20L9 19L10 19L10 18ZM2 19L2 20L3 20L3 19ZM12 19L12 20L11 20L11 21L12 21L12 20L13 20L13 19ZM32 20L32 21L33 21L33 20ZM16 22L16 23L17 23L17 22ZM31 22L31 23L32 23L32 22ZM12 23L12 24L13 24L13 23ZM31 24L31 25L30 25L30 26L31 26L31 27L32 27L32 24ZM18 25L18 26L19 26L19 25ZM25 25L25 28L28 28L28 25ZM26 26L26 27L27 27L27 26ZM15 27L15 29L13 29L13 28L12 28L12 29L11 29L11 30L10 30L10 31L9 31L9 32L10 32L10 31L11 31L11 30L12 30L12 29L13 29L13 30L15 30L15 29L16 29L16 27ZM27 29L27 31L28 31L28 29ZM12 31L12 32L13 32L13 31ZM19 31L19 33L20 33L20 31ZM21 31L21 33L23 33L23 32L22 32L22 31ZM25 31L25 32L26 32L26 31ZM15 32L15 33L16 33L16 32ZM32 32L32 33L33 33L33 32ZM0 0L0 7L7 7L7 0ZM1 1L1 6L6 6L6 1ZM2 2L2 5L5 5L5 2ZM26 0L26 7L33 7L33 0ZM27 1L27 6L32 6L32 1ZM28 2L28 5L31 5L31 2ZM0 26L0 33L7 33L7 26ZM1 27L1 32L6 32L6 27ZM2 28L2 31L5 31L5 28Z" fill="#000000"/></g></g></svg>
