<?xml version="1.0" encoding="UTF-8"?>
<svg xmlns="http://www.w3.org/2000/svg" version="1.1" width="100" height="100" viewBox="0 0 100 100"><rect x="0" y="0" width="100" height="100" fill="#ffffff"/><g transform="scale(3.03)"><g transform="translate(0,0)"><path fill-rule="evenodd" d="M8 0L8 1L10 1L10 0ZM13 0L13 1L14 1L14 2L11 2L11 4L10 4L10 3L9 3L9 2L8 2L8 5L9 5L9 6L8 6L8 7L9 7L9 8L8 8L8 9L7 9L7 8L6 8L6 9L7 9L7 10L5 10L5 11L4 11L4 13L1 13L1 10L0 10L0 13L1 13L1 14L0 14L0 17L2 17L2 18L3 18L3 19L2 19L2 20L3 20L3 19L4 19L4 20L5 20L5 23L3 23L3 22L4 22L4 21L3 21L3 22L2 22L2 23L1 23L1 24L0 24L0 25L1 25L1 24L2 24L2 23L3 23L3 24L5 24L5 23L7 23L7 22L9 22L9 23L8 23L8 24L9 24L9 25L8 25L8 26L9 26L9 28L10 28L10 26L9 26L9 25L11 25L11 28L12 28L12 29L13 29L13 28L12 28L12 26L13 26L13 27L14 27L14 30L13 30L13 33L22 33L22 32L23 32L23 29L25 29L25 31L24 31L24 32L25 32L25 33L31 33L31 32L25 32L25 31L27 31L27 30L26 30L26 29L29 29L29 28L30 28L30 29L31 29L31 31L32 31L32 32L33 32L33 31L32 31L32 29L33 29L33 28L32 28L32 29L31 29L31 27L30 27L30 25L29 25L29 24L30 24L30 23L28 23L28 22L27 22L27 21L28 21L28 20L27 20L27 19L30 19L30 18L31 18L31 19L32 19L32 20L33 20L33 19L32 19L32 18L33 18L33 16L31 16L31 14L32 14L32 13L30 13L30 14L29 14L29 15L28 15L28 18L27 18L27 15L26 15L26 14L25 14L25 15L24 15L24 16L23 16L23 14L20 14L20 12L21 12L21 9L22 9L22 8L21 8L21 5L22 5L22 4L23 4L23 2L24 2L24 3L25 3L25 1L24 1L24 0L23 0L23 2L22 2L22 0L17 0L17 1L16 1L16 2L17 2L17 1L18 1L18 3L15 3L15 4L14 4L14 2L15 2L15 0ZM19 1L19 2L20 2L20 3L18 3L18 4L20 4L20 5L21 5L21 4L22 4L22 2L20 2L20 1ZM12 3L12 5L10 5L10 6L9 6L9 7L10 7L10 8L9 8L9 9L10 9L10 10L7 10L7 11L5 11L5 12L8 12L8 15L10 15L10 16L9 16L9 17L6 17L6 18L5 18L5 17L4 17L4 19L5 19L5 20L7 20L7 21L6 21L6 22L7 22L7 21L8 21L8 20L9 20L9 19L10 19L10 20L12 20L12 19L11 19L11 18L12 18L12 17L13 17L13 16L14 16L14 18L16 18L16 19L17 19L17 17L18 17L18 19L19 19L19 20L20 20L20 21L21 21L21 20L22 20L22 21L23 21L23 20L22 20L22 18L21 18L21 17L19 17L19 16L18 16L18 15L17 15L17 14L19 14L19 12L18 12L18 11L20 11L20 10L18 10L18 9L17 9L17 8L15 8L15 11L14 11L14 5L13 5L13 3ZM20 3L20 4L21 4L21 3ZM16 4L16 5L15 5L15 7L16 7L16 5L17 5L17 4ZM24 4L24 5L25 5L25 4ZM12 5L12 7L11 7L11 6L10 6L10 7L11 7L11 8L12 8L12 7L13 7L13 5ZM18 5L18 6L17 6L17 7L18 7L18 8L20 8L20 9L21 9L21 8L20 8L20 6L19 6L19 5ZM18 6L18 7L19 7L19 6ZM22 6L22 7L23 7L23 8L24 8L24 9L23 9L23 12L22 12L22 13L26 13L26 12L27 12L27 14L28 14L28 13L29 13L29 12L28 12L28 11L26 11L26 10L27 10L27 9L26 9L26 8L24 8L24 7L25 7L25 6L24 6L24 7L23 7L23 6ZM0 8L0 9L2 9L2 11L3 11L3 10L4 10L4 8ZM28 8L28 9L31 9L31 10L29 10L29 11L31 11L31 12L32 12L32 11L33 11L33 8L32 8L32 9L31 9L31 8ZM24 9L24 10L26 10L26 9ZM17 10L17 11L15 11L15 12L14 12L14 11L11 11L11 13L10 13L10 12L9 12L9 11L8 11L8 12L9 12L9 13L10 13L10 14L12 14L12 16L10 16L10 17L12 17L12 16L13 16L13 15L15 15L15 14L16 14L16 13L18 13L18 12L17 12L17 11L18 11L18 10ZM31 10L31 11L32 11L32 10ZM25 11L25 12L26 12L26 11ZM12 12L12 14L14 14L14 13L13 13L13 12ZM4 13L4 14L2 14L2 15L1 15L1 16L7 16L7 15L4 15L4 14L7 14L7 13ZM16 15L16 16L15 16L15 17L17 17L17 15ZM29 15L29 16L30 16L30 15ZM22 16L22 17L23 17L23 16ZM24 17L24 18L23 18L23 19L24 19L24 20L25 20L25 22L24 22L24 23L23 23L23 22L22 22L22 23L21 23L21 22L19 22L19 23L17 23L17 24L16 24L16 21L15 21L15 20L14 20L14 19L13 19L13 20L14 20L14 23L10 23L10 24L11 24L11 25L12 25L12 24L13 24L13 26L14 26L14 27L15 27L15 29L16 29L16 30L17 30L17 31L18 31L18 32L19 32L19 31L21 31L21 32L22 32L22 30L20 30L20 28L21 28L21 27L22 27L22 28L24 28L24 27L23 27L23 26L24 26L24 24L25 24L25 22L26 22L26 24L27 24L27 22L26 22L26 21L27 21L27 20L25 20L25 19L27 19L27 18L25 18L25 17ZM31 17L31 18L32 18L32 17ZM6 18L6 19L7 19L7 20L8 20L8 19L9 19L9 18L8 18L8 19L7 19L7 18ZM20 18L20 19L21 19L21 18ZM24 18L24 19L25 19L25 18ZM0 20L0 22L1 22L1 20ZM30 20L30 21L29 21L29 22L30 22L30 21L31 21L31 24L32 24L32 25L33 25L33 24L32 24L32 23L33 23L33 21L31 21L31 20ZM9 21L9 22L12 22L12 21ZM20 23L20 24L21 24L21 23ZM6 24L6 25L7 25L7 24ZM14 24L14 26L16 26L16 27L17 27L17 26L18 26L18 24L17 24L17 25L16 25L16 24ZM22 24L22 26L23 26L23 24ZM19 25L19 27L21 27L21 26L20 26L20 25ZM25 25L25 28L28 28L28 25ZM26 26L26 27L27 27L27 26ZM16 28L16 29L17 29L17 28ZM18 28L18 31L19 31L19 28ZM8 29L8 33L10 33L10 31L11 31L11 32L12 32L12 31L11 31L11 29ZM9 30L9 31L10 31L10 30ZM29 30L29 31L30 31L30 30ZM0 0L0 7L7 7L7 0ZM1 1L1 6L6 6L6 1ZM2 2L2 5L5 5L5 2ZM26 0L26 7L33 7L33 0ZM27 1L27 6L32 6L32 1ZM28 2L28 5L31 5L31 2ZM0 26L0 33L7 33L7 26ZM1 27L1 32L6 32L6 27ZM2 28L2 31L5 31L5 28Z" fill="#000000"/></g></g></svg>
