<?xml version="1.0" encoding="UTF-8"?>
<svg xmlns="http://www.w3.org/2000/svg" version="1.1" width="100" height="100" viewBox="0 0 100 100"><rect x="0" y="0" width="100" height="100" fill="#ffffff"/><g transform="scale(3.03)"><g transform="translate(0,0)"><path fill-rule="evenodd" d="M9 0L9 1L8 1L8 2L9 2L9 3L8 3L8 4L10 4L10 7L11 7L11 4L12 4L12 5L13 5L13 6L12 6L12 9L14 9L14 10L15 10L15 11L16 11L16 10L15 10L15 9L18 9L18 11L19 11L19 10L21 10L21 11L20 11L20 12L19 12L19 13L18 13L18 12L13 12L13 13L12 13L12 11L13 11L13 10L11 10L11 11L10 11L10 9L11 9L11 8L6 8L6 9L5 9L5 8L0 8L0 9L5 9L5 10L4 10L4 11L3 11L3 12L2 12L2 15L3 15L3 12L4 12L4 14L5 14L5 15L4 15L4 16L6 16L6 17L8 17L8 18L6 18L6 19L5 19L5 17L2 17L2 18L0 18L0 19L2 19L2 20L0 20L0 25L1 25L1 22L2 22L2 23L3 23L3 22L4 22L4 24L3 24L3 25L8 25L8 27L9 27L9 28L8 28L8 33L10 33L10 31L11 31L11 30L10 30L10 29L12 29L12 30L13 30L13 31L12 31L12 33L13 33L13 32L14 32L14 33L15 33L15 32L14 32L14 31L16 31L16 32L17 32L17 33L18 33L18 32L20 32L20 33L21 33L21 32L22 32L22 33L23 33L23 32L24 32L24 33L25 33L25 32L24 32L24 31L23 31L23 30L22 30L22 31L21 31L21 32L20 32L20 31L19 31L19 30L21 30L21 29L19 29L19 30L18 30L18 32L17 32L17 29L18 29L18 28L15 28L15 27L16 27L16 26L17 26L17 25L18 25L18 27L19 27L19 26L20 26L20 27L21 27L21 28L22 28L22 29L23 29L23 28L22 28L22 27L24 27L24 30L25 30L25 31L26 31L26 33L27 33L27 32L28 32L28 31L27 31L27 30L29 30L29 33L30 33L30 32L31 32L31 33L32 33L32 32L31 32L31 31L32 31L32 30L31 30L31 29L30 29L30 28L31 28L31 27L32 27L32 26L33 26L33 24L32 24L32 26L31 26L31 25L30 25L30 26L29 26L29 24L31 24L31 23L32 23L32 22L33 22L33 21L32 21L32 20L31 20L31 19L32 19L32 18L33 18L33 17L32 17L32 16L31 16L31 15L32 15L32 14L33 14L33 13L31 13L31 15L30 15L30 13L29 13L29 11L28 11L28 10L27 10L27 9L28 9L28 8L27 8L27 9L26 9L26 8L25 8L25 5L24 5L24 4L23 4L23 3L22 3L22 2L21 2L21 3L20 3L20 4L19 4L19 5L17 5L17 6L16 6L16 5L14 5L14 3L15 3L15 4L18 4L18 3L17 3L17 2L18 2L18 1L22 1L22 0L17 0L17 1L15 1L15 0L13 0L13 1L11 1L11 2L10 2L10 0ZM23 0L23 1L24 1L24 0ZM13 1L13 2L12 2L12 4L13 4L13 3L14 3L14 2L15 2L15 1ZM10 3L10 4L11 4L11 3ZM21 3L21 5L23 5L23 7L22 7L22 6L21 6L21 7L20 7L20 5L19 5L19 8L18 8L18 6L17 6L17 8L18 8L18 9L21 9L21 10L22 10L22 11L24 11L24 12L25 12L25 10L26 10L26 9L25 9L25 8L24 8L24 5L23 5L23 4L22 4L22 3ZM8 5L8 7L9 7L9 5ZM13 6L13 8L16 8L16 6L15 6L15 7L14 7L14 6ZM21 7L21 8L22 8L22 9L23 9L23 10L24 10L24 9L23 9L23 8L22 8L22 7ZM29 8L29 9L30 9L30 8ZM31 8L31 10L33 10L33 9L32 9L32 8ZM6 9L6 10L7 10L7 11L4 11L4 12L5 12L5 13L6 13L6 14L7 14L7 15L6 15L6 16L9 16L9 17L11 17L11 18L9 18L9 20L8 20L8 19L6 19L6 20L8 20L8 23L9 23L9 24L8 24L8 25L10 25L10 26L9 26L9 27L10 27L10 28L11 28L11 26L13 26L13 27L12 27L12 29L15 29L15 30L16 30L16 29L15 29L15 28L14 28L14 27L15 27L15 26L16 26L16 25L17 25L17 24L18 24L18 25L22 25L22 24L18 24L18 23L20 23L20 22L17 22L17 23L16 23L16 25L14 25L14 24L15 24L15 23L14 23L14 24L13 24L13 25L12 25L12 23L13 23L13 22L12 22L12 21L14 21L14 22L16 22L16 21L17 21L17 20L18 20L18 21L22 21L22 20L20 20L20 18L21 18L21 19L22 19L22 18L23 18L23 20L24 20L24 21L25 21L25 22L26 22L26 21L27 21L27 23L25 23L25 24L29 24L29 21L30 21L30 22L31 22L31 20L29 20L29 19L28 19L28 20L27 20L27 18L26 18L26 17L27 17L27 16L28 16L28 15L27 15L27 14L29 14L29 13L27 13L27 12L28 12L28 11L27 11L27 12L26 12L26 13L25 13L25 15L27 15L27 16L26 16L26 17L25 17L25 16L24 16L24 14L23 14L23 13L22 13L22 12L20 12L20 13L22 13L22 14L21 14L21 15L23 15L23 16L20 16L20 18L18 18L18 19L17 19L17 18L16 18L16 19L12 19L12 21L11 21L11 18L15 18L15 17L16 17L16 15L14 15L14 14L17 14L17 13L13 13L13 14L12 14L12 13L11 13L11 12L10 12L10 13L9 13L9 9L8 9L8 10L7 10L7 9ZM0 10L0 11L2 11L2 10ZM7 11L7 12L6 12L6 13L8 13L8 11ZM30 11L30 12L31 12L31 11ZM0 13L0 17L1 17L1 13ZM10 13L10 14L8 14L8 15L10 15L10 16L11 16L11 13ZM26 13L26 14L27 14L27 13ZM18 14L18 15L17 15L17 16L18 16L18 15L20 15L20 14ZM12 15L12 17L15 17L15 16L13 16L13 15ZM29 15L29 17L28 17L28 18L29 18L29 17L30 17L30 19L31 19L31 16L30 16L30 15ZM23 17L23 18L24 18L24 20L25 20L25 21L26 21L26 19L25 19L25 17ZM2 18L2 19L4 19L4 22L5 22L5 24L7 24L7 23L6 23L6 22L7 22L7 21L5 21L5 19L4 19L4 18ZM16 19L16 20L17 20L17 19ZM2 20L2 21L3 21L3 20ZM28 20L28 21L29 21L29 20ZM10 21L10 23L11 23L11 21ZM21 22L21 23L23 23L23 25L24 25L24 22ZM10 24L10 25L11 25L11 24ZM25 25L25 28L28 28L28 25ZM26 26L26 27L27 27L27 26ZM25 29L25 30L27 30L27 29ZM29 29L29 30L30 30L30 31L31 31L31 30L30 30L30 29ZM0 0L0 7L7 7L7 0ZM1 1L1 6L6 6L6 1ZM2 2L2 5L5 5L5 2ZM26 0L26 7L33 7L33 0ZM27 1L27 6L32 6L32 1ZM28 2L28 5L31 5L31 2ZM0 26L0 33L7 33L7 26ZM1 27L1 32L6 32L6 27ZM2 28L2 31L5 31L5 28Z" fill="#000000"/></g></g></svg>
