<?xml version="1.0" encoding="UTF-8"?>
<svg xmlns="http://www.w3.org/2000/svg" version="1.1" width="100" height="100" viewBox="0 0 100 100"><rect x="0" y="0" width="100" height="100" fill="#ffffff"/><g transform="scale(3.03)"><g transform="translate(0,0)"><path fill-rule="evenodd" d="M9 0L9 1L8 1L8 2L9 2L9 3L8 3L8 4L10 4L10 7L11 7L11 4L12 4L12 5L13 5L13 6L12 6L12 9L16 9L16 10L15 10L15 11L14 11L14 12L12 12L12 11L13 11L13 10L11 10L11 11L10 11L10 9L11 9L11 8L6 8L6 9L5 9L5 8L0 8L0 9L3 9L3 10L2 10L2 12L0 12L0 13L2 13L2 12L3 12L3 11L7 11L7 10L8 10L8 9L9 9L9 15L7 15L7 14L6 14L6 15L7 15L7 16L6 16L6 17L7 17L7 18L3 18L3 17L5 17L5 16L4 16L4 14L2 14L2 15L1 15L1 14L0 14L0 16L1 16L1 17L2 17L2 19L0 19L0 20L1 20L1 21L0 21L0 25L1 25L1 22L2 22L2 23L3 23L3 24L6 24L6 25L7 25L7 24L8 24L8 27L11 27L11 30L9 30L9 28L8 28L8 33L9 33L9 31L11 31L11 30L12 30L12 32L10 32L10 33L12 33L12 32L13 32L13 33L14 33L14 32L13 32L13 30L15 30L15 31L16 31L16 32L17 32L17 33L18 33L18 32L20 32L20 33L21 33L21 32L22 32L22 33L23 33L23 32L24 32L24 33L25 33L25 32L24 32L24 31L23 31L23 30L22 30L22 31L21 31L21 32L20 32L20 31L19 31L19 30L21 30L21 29L19 29L19 30L18 30L18 32L17 32L17 29L18 29L18 28L15 28L15 29L14 29L14 28L12 28L12 27L16 27L16 26L17 26L17 25L18 25L18 27L19 27L19 26L20 26L20 27L21 27L21 28L22 28L22 29L23 29L23 28L22 28L22 27L24 27L24 30L25 30L25 31L26 31L26 33L27 33L27 32L28 32L28 31L27 31L27 30L29 30L29 33L30 33L30 32L31 32L31 33L32 33L32 32L31 32L31 31L32 31L32 30L31 30L31 29L30 29L30 28L31 28L31 27L32 27L32 26L33 26L33 24L32 24L32 26L31 26L31 25L30 25L30 26L29 26L29 24L31 24L31 23L32 23L32 22L33 22L33 21L32 21L32 20L31 20L31 19L32 19L32 18L33 18L33 17L32 17L32 16L31 16L31 15L32 15L32 14L33 14L33 13L31 13L31 15L30 15L30 13L29 13L29 11L28 11L28 10L27 10L27 9L28 9L28 8L27 8L27 9L26 9L26 8L25 8L25 5L24 5L24 4L23 4L23 3L22 3L22 2L21 2L21 3L20 3L20 4L19 4L19 5L17 5L17 4L18 4L18 3L16 3L16 1L17 1L17 2L18 2L18 1L22 1L22 0L16 0L16 1L14 1L14 0L13 0L13 1L11 1L11 2L10 2L10 0ZM23 0L23 1L24 1L24 0ZM12 2L12 4L13 4L13 5L14 5L14 6L13 6L13 8L15 8L15 7L16 7L16 9L17 9L17 10L16 10L16 11L17 11L17 12L15 12L15 13L14 13L14 14L16 14L16 13L17 13L17 12L18 12L18 13L19 13L19 12L20 12L20 13L22 13L22 14L21 14L21 15L23 15L23 16L20 16L20 18L18 18L18 19L17 19L17 16L18 16L18 15L20 15L20 14L18 14L18 15L17 15L17 16L16 16L16 15L12 15L12 13L11 13L11 12L10 12L10 13L11 13L11 14L10 14L10 15L12 15L12 16L9 16L9 18L10 18L10 19L11 19L11 21L12 21L12 22L11 22L11 23L10 23L10 24L9 24L9 22L8 22L8 24L9 24L9 26L10 26L10 25L12 25L12 26L11 26L11 27L12 27L12 26L14 26L14 25L15 25L15 26L16 26L16 25L17 25L17 24L18 24L18 25L22 25L22 24L18 24L18 23L20 23L20 22L17 22L17 23L16 23L16 25L15 25L15 22L16 22L16 21L17 21L17 20L18 20L18 21L22 21L22 20L20 20L20 18L21 18L21 19L22 19L22 18L23 18L23 20L24 20L24 21L25 21L25 22L26 22L26 21L27 21L27 23L25 23L25 24L29 24L29 21L30 21L30 22L31 22L31 20L29 20L29 19L28 19L28 20L27 20L27 18L26 18L26 17L27 17L27 16L28 16L28 15L27 15L27 14L29 14L29 13L27 13L27 12L28 12L28 11L27 11L27 12L26 12L26 13L25 13L25 15L27 15L27 16L26 16L26 17L25 17L25 16L24 16L24 14L23 14L23 13L22 13L22 12L20 12L20 11L21 11L21 10L22 10L22 11L24 11L24 12L25 12L25 10L26 10L26 9L25 9L25 8L24 8L24 5L23 5L23 4L22 4L22 3L21 3L21 5L23 5L23 7L22 7L22 6L21 6L21 7L20 7L20 5L19 5L19 8L18 8L18 6L17 6L17 7L16 7L16 6L15 6L15 5L16 5L16 4L15 4L15 5L14 5L14 4L13 4L13 3L14 3L14 2ZM10 3L10 4L11 4L11 3ZM8 5L8 7L9 7L9 5ZM14 6L14 7L15 7L15 6ZM21 7L21 8L22 8L22 9L23 9L23 10L24 10L24 9L23 9L23 8L22 8L22 7ZM17 8L17 9L18 9L18 11L19 11L19 10L21 10L21 9L18 9L18 8ZM29 8L29 9L30 9L30 8ZM31 8L31 10L33 10L33 9L32 9L32 8ZM4 9L4 10L5 10L5 9ZM6 9L6 10L7 10L7 9ZM0 10L0 11L1 11L1 10ZM30 11L30 12L31 12L31 11ZM4 12L4 13L5 13L5 12ZM6 12L6 13L8 13L8 12ZM26 13L26 14L27 14L27 13ZM29 15L29 17L28 17L28 18L29 18L29 17L30 17L30 19L31 19L31 16L30 16L30 15ZM2 16L2 17L3 17L3 16ZM7 16L7 17L8 17L8 16ZM12 16L12 17L11 17L11 18L12 18L12 19L14 19L14 20L12 20L12 21L14 21L14 22L12 22L12 24L13 24L13 25L14 25L14 24L13 24L13 23L14 23L14 22L15 22L15 21L14 21L14 20L15 20L15 19L16 19L16 20L17 20L17 19L16 19L16 18L15 18L15 16L14 16L14 17L13 17L13 16ZM12 17L12 18L13 18L13 17ZM23 17L23 18L24 18L24 20L25 20L25 21L26 21L26 19L25 19L25 17ZM2 19L2 20L3 20L3 19ZM5 19L5 20L7 20L7 21L6 21L6 22L7 22L7 21L8 21L8 20L9 20L9 19L8 19L8 20L7 20L7 19ZM28 20L28 21L29 21L29 20ZM2 21L2 22L3 22L3 23L4 23L4 21ZM21 22L21 23L23 23L23 25L24 25L24 22ZM6 23L6 24L7 24L7 23ZM25 25L25 28L28 28L28 25ZM26 26L26 27L27 27L27 26ZM32 28L32 29L33 29L33 28ZM15 29L15 30L16 30L16 29ZM25 29L25 30L27 30L27 29ZM29 29L29 30L30 30L30 31L31 31L31 30L30 30L30 29ZM0 0L0 7L7 7L7 0ZM1 1L1 6L6 6L6 1ZM2 2L2 5L5 5L5 2ZM26 0L26 7L33 7L33 0ZM27 1L27 6L32 6L32 1ZM28 2L28 5L31 5L31 2ZM0 26L0 33L7 33L7 26ZM1 27L1 32L6 32L6 27ZM2 28L2 31L5 31L5 28Z" fill="#000000"/></g></g></svg>
