<?xml version="1.0" encoding="UTF-8"?>
<svg xmlns="http://www.w3.org/2000/svg" version="1.1" width="100" height="100" viewBox="0 0 100 100"><rect x="0" y="0" width="100" height="100" fill="#ffffff"/><g transform="scale(3.03)"><g transform="translate(0,0)"><path fill-rule="evenodd" d="M8 0L8 1L9 1L9 2L8 2L8 5L9 5L9 4L11 4L11 5L10 5L10 10L8 10L8 9L9 9L9 8L8 8L8 9L7 9L7 8L6 8L6 9L4 9L4 8L0 8L0 9L4 9L4 10L5 10L5 11L4 11L4 12L3 12L3 11L2 11L2 10L1 10L1 11L2 11L2 13L1 13L1 12L0 12L0 13L1 13L1 14L0 14L0 18L1 18L1 21L0 21L0 22L2 22L2 23L1 23L1 24L0 24L0 25L1 25L1 24L2 24L2 23L3 23L3 25L5 25L5 24L4 24L4 23L7 23L7 24L6 24L6 25L7 25L7 24L9 24L9 25L8 25L8 26L10 26L10 27L9 27L9 28L10 28L10 30L9 30L9 29L8 29L8 33L10 33L10 32L11 32L11 33L12 33L12 32L13 32L13 33L14 33L14 32L16 32L16 29L15 29L15 30L14 30L14 28L13 28L13 27L15 27L15 28L16 28L16 27L15 27L15 26L17 26L17 27L21 27L21 28L20 28L20 30L22 30L22 32L21 32L21 31L19 31L19 32L18 32L18 31L17 31L17 33L22 33L22 32L23 32L23 29L25 29L25 31L24 31L24 32L25 32L25 33L31 33L31 32L25 32L25 31L27 31L27 30L26 30L26 29L29 29L29 28L30 28L30 29L31 29L31 31L32 31L32 32L33 32L33 31L32 31L32 29L33 29L33 27L30 27L30 25L29 25L29 24L30 24L30 23L28 23L28 22L27 22L27 21L28 21L28 20L27 20L27 19L30 19L30 18L31 18L31 19L32 19L32 20L33 20L33 19L32 19L32 18L33 18L33 16L31 16L31 14L32 14L32 13L30 13L30 14L29 14L29 15L28 15L28 18L27 18L27 15L26 15L26 14L25 14L25 15L24 15L24 16L23 16L23 14L20 14L20 13L21 13L21 9L22 9L22 8L21 8L21 6L20 6L20 4L18 4L18 3L17 3L17 2L16 2L16 3L15 3L15 2L14 2L14 1L18 1L18 2L19 2L19 3L20 3L20 2L19 2L19 1L21 1L21 2L22 2L22 4L21 4L21 5L22 5L22 4L23 4L23 2L24 2L24 3L25 3L25 1L24 1L24 0L23 0L23 2L22 2L22 0L12 0L12 1L11 1L11 0L10 0L10 1L9 1L9 0ZM11 2L11 4L12 4L12 3L13 3L13 2ZM14 3L14 4L13 4L13 5L12 5L12 6L11 6L11 8L12 8L12 6L13 6L13 11L11 11L11 13L9 13L9 11L8 11L8 10L7 10L7 9L6 9L6 10L7 10L7 11L5 11L5 12L8 12L8 13L9 13L9 14L10 14L10 15L11 15L11 13L12 13L12 12L13 12L13 11L14 11L14 13L13 13L13 14L12 14L12 16L10 16L10 17L9 17L9 15L8 15L8 17L6 17L6 16L7 16L7 15L6 15L6 16L5 16L5 17L4 17L4 18L5 18L5 17L6 17L6 18L8 18L8 19L6 19L6 20L8 20L8 21L9 21L9 22L7 22L7 21L6 21L6 22L7 22L7 23L9 23L9 22L11 22L11 23L14 23L14 24L15 24L15 25L17 25L17 26L19 26L19 25L20 25L20 26L21 26L21 27L22 27L22 28L24 28L24 27L23 27L23 26L24 26L24 24L25 24L25 22L26 22L26 24L27 24L27 22L26 22L26 21L27 21L27 20L25 20L25 19L27 19L27 18L25 18L25 17L24 17L24 18L23 18L23 19L24 19L24 20L25 20L25 22L24 22L24 23L23 23L23 22L22 22L22 23L21 23L21 22L19 22L19 21L17 21L17 19L18 19L18 18L19 18L19 20L20 20L20 21L21 21L21 20L22 20L22 21L23 21L23 20L22 20L22 18L21 18L21 17L18 17L18 15L19 15L19 14L18 14L18 15L17 15L17 14L15 14L15 11L17 11L17 12L18 12L18 13L20 13L20 12L18 12L18 11L20 11L20 10L16 10L16 9L15 9L15 8L17 8L17 7L18 7L18 6L19 6L19 7L20 7L20 6L19 6L19 5L18 5L18 6L17 6L17 5L15 5L15 3ZM24 4L24 5L25 5L25 4ZM13 5L13 6L14 6L14 7L15 7L15 5ZM8 6L8 7L9 7L9 6ZM16 6L16 7L17 7L17 6ZM22 6L22 7L23 7L23 8L24 8L24 9L23 9L23 12L22 12L22 13L26 13L26 12L27 12L27 14L28 14L28 13L29 13L29 12L28 12L28 11L26 11L26 10L27 10L27 9L26 9L26 8L24 8L24 7L25 7L25 6L24 6L24 7L23 7L23 6ZM28 8L28 9L31 9L31 10L29 10L29 11L31 11L31 12L32 12L32 11L33 11L33 8L32 8L32 9L31 9L31 8ZM11 9L11 10L12 10L12 9ZM14 9L14 11L15 11L15 9ZM24 9L24 10L26 10L26 9ZM31 10L31 11L32 11L32 10ZM25 11L25 12L26 12L26 11ZM3 13L3 14L2 14L2 15L3 15L3 14L4 14L4 15L5 15L5 14L7 14L7 13ZM13 14L13 15L15 15L15 14ZM29 15L29 16L30 16L30 15ZM12 16L12 17L15 17L15 18L13 18L13 19L14 19L14 23L15 23L15 24L16 24L16 23L15 23L15 20L16 20L16 19L17 19L17 18L18 18L18 17L17 17L17 18L16 18L16 16ZM22 16L22 17L23 17L23 16ZM1 17L1 18L2 18L2 22L3 22L3 23L4 23L4 22L5 22L5 21L4 21L4 20L5 20L5 19L3 19L3 18L2 18L2 17ZM31 17L31 18L32 18L32 17ZM20 18L20 19L21 19L21 18ZM24 18L24 19L25 19L25 18ZM11 19L11 20L9 20L9 21L11 21L11 20L12 20L12 19ZM30 20L30 21L29 21L29 22L30 22L30 21L31 21L31 24L32 24L32 25L33 25L33 24L32 24L32 23L33 23L33 21L31 21L31 20ZM16 21L16 22L17 22L17 23L18 23L18 22L17 22L17 21ZM20 23L20 24L21 24L21 23ZM12 24L12 26L11 26L11 27L10 27L10 28L12 28L12 29L11 29L11 30L12 30L12 29L13 29L13 28L12 28L12 26L14 26L14 25L13 25L13 24ZM17 24L17 25L19 25L19 24ZM22 24L22 26L23 26L23 24ZM25 25L25 28L28 28L28 25ZM26 26L26 27L27 27L27 26ZM18 28L18 30L19 30L19 28ZM31 28L31 29L32 29L32 28ZM29 30L29 31L30 31L30 30ZM11 31L11 32L12 32L12 31ZM13 31L13 32L14 32L14 31ZM0 0L0 7L7 7L7 0ZM1 1L1 6L6 6L6 1ZM2 2L2 5L5 5L5 2ZM26 0L26 7L33 7L33 0ZM27 1L27 6L32 6L32 1ZM28 2L28 5L31 5L31 2ZM0 26L0 33L7 33L7 26ZM1 27L1 32L6 32L6 27ZM2 28L2 31L5 31L5 28Z" fill="#000000"/></g></g></svg>
